<svg width="28" height="28" viewBox="0 0 28 28" fill="none" xmlns="http://www.w3.org/2000/svg">
<path d="M14.0002 26.5418C7.08183 26.5418 1.4585 20.9185 1.4585 14.0002C1.4585 7.08183 7.08183 1.4585 14.0002 1.4585C20.9185 1.4585 26.5418 7.08183 26.5418 14.0002C26.5418 20.9185 20.9185 26.5418 14.0002 26.5418ZM14.0002 3.2085C8.05016 3.2085 3.2085 8.05016 3.2085 14.0002C3.2085 19.9502 8.05016 24.7918 14.0002 24.7918C19.9502 24.7918 24.7918 19.9502 24.7918 14.0002C24.7918 8.05016 19.9502 3.2085 14.0002 3.2085Z" fill="#404040"/>
<path d="M18.6668 14.875H9.3335C8.85516 14.875 8.4585 14.4783 8.4585 14C8.4585 13.5217 8.85516 13.125 9.3335 13.125H18.6668C19.1452 13.125 19.5418 13.5217 19.5418 14C19.5418 14.4783 19.1452 14.875 18.6668 14.875Z" fill="#404040"/>
<path d="M14 19.5418C13.5217 19.5418 13.125 19.1452 13.125 18.6668V9.3335C13.125 8.85516 13.5217 8.4585 14 8.4585C14.4783 8.4585 14.875 8.85516 14.875 9.3335V18.6668C14.875 19.1452 14.4783 19.5418 14 19.5418Z" fill="#404040"/>
</svg>
