<svg width="48" height="48" viewBox="0 0 48 48" fill="none" xmlns="http://www.w3.org/2000/svg">
<path d="M10 24C9.46957 24 8.96086 24.2107 8.58579 24.5858C8.21071 24.9609 8 25.4696 8 26V42C8 42.5304 8.21071 43.0391 8.58579 43.4142C8.96086 43.7893 9.46957 44 10 44C10.5304 44 11.0391 43.7893 11.4142 43.4142C11.7893 43.0391 12 42.5304 12 42V26C12 25.4696 11.7893 24.9609 11.4142 24.5858C11.0391 24.2107 10.5304 24 10 24ZM20 4C19.4696 4 18.9609 4.21071 18.5858 4.58579C18.2107 4.96086 18 5.46957 18 6V42C18 42.5304 18.2107 43.0391 18.5858 43.4142C18.9609 43.7893 19.4696 44 20 44C20.5304 44 21.0391 43.7893 21.4142 43.4142C21.7893 43.0391 22 42.5304 22 42V6C22 5.46957 21.7893 4.96086 21.4142 4.58579C21.0391 4.21071 20.5304 4 20 4ZM40 32C39.4696 32 38.9609 32.2107 38.5858 32.5858C38.2107 32.9609 38 33.4696 38 34V42C38 42.5304 38.2107 43.0391 38.5858 43.4142C38.9609 43.7893 39.4696 44 40 44C40.5304 44 41.0391 43.7893 41.4142 43.4142C41.7893 43.0391 42 42.5304 42 42V34C42 33.4696 41.7893 32.9609 41.4142 32.5858C41.0391 32.2107 40.5304 32 40 32ZM30 16C29.4696 16 28.9609 16.2107 28.5858 16.5858C28.2107 16.9609 28 17.4696 28 18V42C28 42.5304 28.2107 43.0391 28.5858 43.4142C28.9609 43.7893 29.4696 44 30 44C30.5304 44 31.0391 43.7893 31.4142 43.4142C31.7893 43.0391 32 42.5304 32 42V18C32 17.4696 31.7893 16.9609 31.4142 16.5858C31.0391 16.2107 30.5304 16 30 16Z" fill="#1a1d1c"/>
</svg>
