<svg width="43" height="14" viewBox="0 0 43 14" fill="none" xmlns="http://www.w3.org/2000/svg">
<path fill-rule="evenodd" clip-rule="evenodd" d="M35.2199 0.21934C35.3605 0.0788894 35.5512 0 35.7499 0C35.9487 0 36.1393 0.0788894 36.2799 0.21934L42.2799 6.21934C42.4204 6.35997 42.4992 6.55059 42.4992 6.74934C42.4992 6.94809 42.4204 7.13871 42.2799 7.27934L36.2799 13.2793C36.2112 13.353 36.1284 13.4121 36.0364 13.4531C35.9444 13.4941 35.8451 13.5162 35.7444 13.5179C35.6437 13.5197 35.5437 13.5012 35.4503 13.4635C35.3569 13.4257 35.2721 13.3696 35.2009 13.2984C35.1296 13.2272 35.0735 13.1423 35.0358 13.0489C34.9981 12.9555 34.9795 12.8555 34.9813 12.7548C34.9831 12.6541 35.0051 12.5548 35.0461 12.4628C35.0871 12.3708 35.1462 12.288 35.2199 12.2193L39.9399 7.49934H25.7499C25.551 7.49934 0.360271 7.42032 0.219618 7.27967C0.0789662 7.13902 0 6.94794 0 6.74902C0 6.55011 0.0789662 6.35966 0.219618 6.21901C0.360271 6.07836 25.551 5.99934 25.7499 5.99934H39.9399L35.2199 1.27934C35.0795 1.13871 35.0006 0.948091 35.0006 0.74934C35.0006 0.550589 35.0795 0.359965 35.2199 0.21934Z" fill="black"/>
</svg>
