<svg width="20" height="20" viewBox="0 0 20 20" fill="none" xmlns="http://www.w3.org/2000/svg">
<path d="M9.58268 18.1243C4.87435 18.1243 1.04102 14.291 1.04102 9.58268C1.04102 4.87435 4.87435 1.04102 9.58268 1.04102C14.291 1.04102 18.1243 4.87435 18.1243 9.58268C18.1243 14.291 14.291 18.1243 9.58268 18.1243ZM9.58268 2.29102C5.55768 2.29102 2.29102 5.56602 2.29102 9.58268C2.29102 13.5993 5.55768 16.8743 9.58268 16.8743C13.6077 16.8743 16.8743 13.5993 16.8743 9.58268C16.8743 5.56602 13.6077 2.29102 9.58268 2.29102Z" fill="#727272"/>
<path d="M18.3345 18.9576C18.1762 18.9576 18.0178 18.8992 17.8928 18.7742L16.2262 17.1076C15.9845 16.8659 15.9845 16.4659 16.2262 16.2242C16.4678 15.9826 16.8678 15.9826 17.1095 16.2242L18.7762 17.8909C19.0178 18.1326 19.0178 18.5326 18.7762 18.7742C18.6512 18.8992 18.4928 18.9576 18.3345 18.9576Z" fill="#727272"/>
</svg>
